<?xml version="1.0" encoding="utf-8"?>
<!-- Generator: Adobe Illustrator 24.0.1, SVG Export Plug-In . SVG Version: 6.00 Build 0)  -->
<svg version="1.1" id="Capa_1" xmlns="http://www.w3.org/2000/svg" xmlns:xlink="http://www.w3.org/1999/xlink" x="0px" y="0px"
	 viewBox="0 0 512 512" style="enable-background:new 0 0 512 512;" xml:space="preserve">
<style type="text/css">
	.st0{fill:#24E09B;}
</style>
<g>
	<g>
		<path class="st0" d="M502,206.5h-82v-21.2c0-5.5-4.5-10-10-10H194c-5.5,0-10,4.5-10,10s4.5,10,10,10h206V272
			c0,67.3-36,129.9-94,164H114C56,401.9,20,339.3,20,272v-76.7h67c5.5,0,10-4.5,10-10s-4.5-10-10-10H10c-5.5,0-10,4.5-10,10V272
			c0,37.8,10.2,74.9,29.4,107.2c13,21.8,29.8,41,49.5,56.8H10c-5.5,0-10,4.5-10,10c0,36.4,29.6,66,66,66h312c36.4,0,66-29.6,66-66
			c0-5.5-4.5-10-10-10h-92.9c18.1-14.5,33.8-32,46.3-51.7h28.2c53.1,0,96.3-43.2,96.3-96.3v-71.5C512,211,507.5,206.5,502,206.5z
			 M422.9,456c-4.6,20.6-23,36-44.9,36H66c-21.9,0-40.3-15.4-44.9-36h90.2h197.3H422.9z M420,272v-5.5h32V288
			c0,20-16.3,36.3-36.3,36.3h-2.3C417.8,307.3,420,289.7,420,272z M492,288c0,42.1-34.2,76.3-76.3,76.3h-17c3.2-6.5,6-13.2,8.5-20
			h8.5c31.1,0,56.3-25.3,56.3-56.3v-31.5c0-5.5-4.5-10-10-10h-42v-20h72V288z"/>
	</g>
</g>
<g>
	<g>
		<path class="st0" d="M219.5,55.3l-5.2-6.5c-7.6-9.6-7.6-23,0-32.6c3.4-4.3,2.7-10.6-1.6-14c-4.3-3.4-10.6-2.7-14.1,1.6
			c-13.4,16.9-13.4,40.6,0,57.5l5.2,6.5c10,12.5,10,30,0,42.6l-5.3,6.7c-3.4,4.3-2.7,10.6,1.6,14c1.8,1.5,4,2.2,6.2,2.2
			c2.9,0,5.9-1.3,7.8-3.8l5.3-6.7C235.4,102.9,235.4,75.2,219.5,55.3z"/>
	</g>
</g>
<g>
	<g>
		<path class="st0" d="M275,77.8l-5.2-6.5c-7.6-9.6-7.6-23,0-32.6c3.4-4.3,2.7-10.6-1.6-14c-4.3-3.4-10.6-2.7-14.1,1.6
			c-13.4,16.9-13.4,40.6,0,57.5l5.2,6.5c10,12.5,10,30,0,42.6l-5.3,6.7c-3.4,4.3-2.7,10.6,1.6,14c1.8,1.5,4,2.2,6.2,2.2
			c2.9,0,5.9-1.3,7.8-3.8l5.3-6.7C290.8,125.4,290.8,97.7,275,77.8z"/>
	</g>
</g>
<g>
	<g>
		<path class="st0" d="M164.1,77.8l-5.2-6.5c-7.6-9.6-7.6-23,0-32.6c3.4-4.3,2.7-10.6-1.6-14c-4.3-3.4-10.6-2.7-14.1,1.6
			c-13.4,16.9-13.4,40.6,0.1,57.5l5.2,6.5c10,12.5,10,30,0,42.6l-5.3,6.7c-3.4,4.3-2.7,10.6,1.6,14.1c1.8,1.5,4,2.2,6.2,2.2
			c2.9,0,5.9-1.3,7.8-3.8l5.3-6.7C180,125.4,179.9,97.7,164.1,77.8z"/>
	</g>
</g>
<g>
	<g>
		<path class="st0" d="M150.3,178.3c-1.9-1.9-4.4-2.9-7.1-2.9s-5.2,1.1-7.1,2.9c-1.9,1.9-2.9,4.4-2.9,7.1s1.1,5.2,2.9,7.1
			c1.9,1.9,4.4,2.9,7.1,2.9s5.2-1.1,7.1-2.9c1.9-1.9,2.9-4.4,2.9-7.1C153.2,182.7,152.1,180.1,150.3,178.3z"/>
	</g>
</g>
<g>
	<g>
		<path class="st0" d="M362,262c-5.5,0-10,4.5-10,10c0,37.1-15.1,73.6-41.3,100.1c-3.9,3.9-3.9,10.3,0.1,14.1c2,1.9,4.5,2.9,7,2.9
			c2.6,0,5.1-1,7.1-3C354.8,356,372,314.4,372,272C372,266.5,367.5,262,362,262z"/>
	</g>
</g>
<g>
	<g>
		<path class="st0" d="M293.9,399.2c-2.7-4.8-8.8-6.5-13.6-3.8l-0.2,0.1c-4.8,2.7-6.5,8.8-3.8,13.6c1.8,3.3,5.2,5.1,8.7,5.1
			c1.7,0,3.4-0.4,4.9-1.3l0.2-0.1C294.9,410.1,296.6,404,293.9,399.2z"/>
	</g>
</g>
</svg>
