<?xml version="1.0" encoding="utf-8"?>
<!-- Generator: Adobe Illustrator 24.0.1, SVG Export Plug-In . SVG Version: 6.00 Build 0)  -->
<svg version="1.1" id="_x33_0" xmlns="http://www.w3.org/2000/svg" xmlns:xlink="http://www.w3.org/1999/xlink" x="0px" y="0px"
	 viewBox="0 0 512 512" style="enable-background:new 0 0 512 512;" xml:space="preserve">
<style type="text/css">
	.st0{fill:#24E09B;}
</style>
<g>
	<path class="st0" d="M355.3,232c5.2,0,10-2,13.7-5.7l26.3-26.3H480c13.2,0,24-10.8,24-24V64c0-13.2-10.8-24-24-24H312V24
		c0-8.8-7.2-16-16-16H75.3C71,8,67,9.7,64,12.7L12.7,64C9.7,67,8,71,8,75.3V488c0,8.8,7.2,16,16,16h272c8.8,0,16-7.2,16-16v-64h76.7
		l26.3,26.3c3.6,3.6,8.5,5.7,13.7,5.7c10.6,0,19.3-8.7,19.3-19.3V424h32c13.2,0,24-10.8,24-24V288c0-13.2-10.8-24-24-24H312v-64h24
		v12.7C336,223.3,344.7,232,355.3,232z M64,35.3V64H35.3L64,35.3z M24,488V80h56V24h216v17.5c-9.3,3.3-16,12.1-16,22.5v112
		c0,10.4,6.7,19.2,16,22.5v67c-9.3,3.3-16,12.1-16,22.5v112c0,10.4,6.7,19.2,16,22.5V488H24z M488,288v112c0,4.4-3.6,8-8,8h-48v28.7
		c0,2.7-3.8,4.2-5.7,2.3l-31-31H304c-4.4,0-8-3.6-8-8V288c0-4.4,3.6-8,8-8h176C484.4,280,488,283.6,488,288L488,288z M304,184
		c-4.4,0-8-3.6-8-8V64c0-4.4,3.6-8,8-8h176c4.4,0,8,3.6,8,8v112c0,4.4-3.6,8-8,8h-91.3l-31,31c-1.9,1.9-5.7,0.4-5.7-2.3V184H304z"/>
	<path class="st0" d="M461.4,85.9l-10.8-11.8L368.3,149l-18.6-18.6l-11.3,11.3l29.4,29.4L461.4,85.9z"/>
	<path class="st0" d="M216,280H40v64h176V280z M200,328H56v-32h144V328z"/>
	<path class="st0" d="M40,360h176v16H40V360z"/>
	<path class="st0" d="M40,392h208v16H40V392z"/>
	<path class="st0" d="M40,424h208v16H40V424z"/>
	<path class="st0" d="M40,456h48v16H40V456z"/>
	<path class="st0" d="M104,456h48v16h-48V456z"/>
	<path class="st0" d="M168,456h48v16h-48V456z"/>
	<path class="st0" d="M160,56c-57.3,0-104,46.7-104,104s46.7,104,104,104s104-46.7,104-104S217.3,56,160,56z M160,248
		c-25,0-47.6-10.6-63.6-27.4c5.9-10.1,14.1-18.6,23.7-24.8l39.9,39.4l39.9-39.4c9.7,6.2,17.8,14.7,23.7,24.8
		C207.6,237.4,185,248,160,248L160,248z M128,136c0-17.6,14.4-32,32-32s32,14.4,32,32s-14.4,32-32,32S128,153.6,128,136z
		 M135.4,188.5c7.8-2.8,16.1-4.5,24.6-4.5s16.8,1.7,24.6,4.5L160,212.8L135.4,188.5z M234.2,207.1c-10.8-15.6-26.3-27.5-44-33.8
		C201,164.5,208,151,208,136c0-26.5-21.5-48-48-48s-48,21.5-48,48c0,15,7,28.5,17.8,37.3c-17.7,6.4-33.3,18.2-44,33.8
		C77.1,193.5,72,177.3,72,160c0-48.5,39.5-88,88-88s88,39.5,88,88C248,177.3,242.9,193.5,234.2,207.1L234.2,207.1z"/>
	<path class="st0" d="M357.7,389.7l34.3-34.3l34.3,34.3l11.3-11.3L403.3,344l34.3-34.3l-11.3-11.3L392,332.7l-34.3-34.3l-11.3,11.3
		l34.3,34.3l-34.3,34.3L357.7,389.7z"/>
</g>
</svg>
