<?xml version="1.0" encoding="utf-8"?>
<!-- Generator: Adobe Illustrator 24.0.1, SVG Export Plug-In . SVG Version: 6.00 Build 0)  -->
<svg version="1.1" id="_x31_px" xmlns="http://www.w3.org/2000/svg" xmlns:xlink="http://www.w3.org/1999/xlink" x="0px" y="0px"
	 viewBox="0 0 512 512" style="enable-background:new 0 0 512 512;" xml:space="preserve">
<style type="text/css">
	.st0{fill:#24E09B;}
</style>
<path class="st0" d="M458.7,426.7H416c-5.9,0-10.7-4.8-10.7-10.7c0-5.9,4.8-10.7,10.7-10.7h42.7c17.6,0,32-14.4,32-32V138.7
	c0-17.6-14.4-32-32-32H213.3c-2.8,0-5.5-1.1-7.6-3.1L166.3,64H53.3c-17.6,0-32,14.4-32,32v277.3c0,17.6,14.4,32,32,32H96
	c5.9,0,10.7,4.8,10.7,10.7c0,5.9-4.8,10.7-10.7,10.7H53.3C23.9,426.7,0,402.7,0,373.3V96c0-29.4,23.9-53.3,53.3-53.3h117.3
	c2.8,0,5.5,1.1,7.6,3.1l39.5,39.6h240.9c29.4,0,53.3,23.9,53.3,53.3v234.7C512,402.7,488.1,426.7,458.7,426.7z"/>
<path class="st0" d="M256,400c-5.9,0-10.7-4.8-10.7-10.7V224c0-5.9,4.8-10.7,10.7-10.7s10.7,4.8,10.7,10.7v165.3
	C266.7,395.2,261.9,400,256,400z"/>
<path class="st0" d="M256,405.3c-2.7,0-5.5-1-7.6-3.1l-53.3-53.3c-4.2-4.2-4.2-10.9,0-15.1c4.2-4.2,10.9-4.2,15.1,0l45.8,45.8
	l45.8-45.8c4.2-4.2,10.9-4.2,15.1,0c4.2,4.2,4.2,10.9,0,15.1l-53.3,53.3C261.5,404.3,258.7,405.3,256,405.3z"/>
<path class="st0" d="M330.7,469.3H181.3c-17.6,0-32-14.4-32-32v-42.7c0-5.9,4.8-10.7,10.7-10.7s10.7,4.8,10.7,10.7v42.7
	c0,5.9,4.8,10.7,10.7,10.7h149.3c5.9,0,10.7-4.8,10.7-10.7v-42.7c0-5.9,4.8-10.7,10.7-10.7c5.9,0,10.7,4.8,10.7,10.7v42.7
	C362.7,455,348.3,469.3,330.7,469.3z"/>
</svg>
