<?xml version="1.0" encoding="utf-8"?>
<!-- Generator: Adobe Illustrator 24.0.1, SVG Export Plug-In . SVG Version: 6.00 Build 0)  -->
<svg version="1.1" id="Capa_1" xmlns="http://www.w3.org/2000/svg" xmlns:xlink="http://www.w3.org/1999/xlink" x="0px" y="0px"
	 viewBox="0 0 512 512" style="enable-background:new 0 0 512 512;" xml:space="preserve">
<style type="text/css">
	.st0{fill:#24E09B;}
</style>
<g>
	<path class="st0" d="M472,128h-10.4c26.5-29.6,24.1-75.1-5.5-101.7c-29.6-26.5-75.1-24.1-101.7,5.5c-24.5,27.4-24.5,68.8,0,96.1
		H256V48c0-4.4-3.6-8-8-8h-32c-4.4,0-8,3.6-8,8v80h-8V16c0-4.4-3.6-8-8-8h-32c-4.4,0-8,3.6-8,8v112h-8V72c0-4.4-3.6-8-8-8h-32
		c-4.4,0-8,3.6-8,8v56H40c-17.7,0-32,14.3-32,32v240c0,17.7,14.3,32,32,32h164.9l-10.7,32H168c-4.4,0-8,3.6-8,8v16H80
		c-4.4,0-8,3.6-8,8s3.6,8,8,8h352c4.4,0,8-3.6,8-8s-3.6-8-8-8h-80v-16c0-4.4-3.6-8-8-8h-26.2l-10.7-32H472c17.7,0,32-14.3,32-32V160
		C504,142.3,489.7,128,472,128z M416,24.6c24.6,3.6,43.8,22.9,47.4,47.4H416V24.6z M411.3,88h52.1c-4.4,30.6-32.8,51.8-63.4,47.4
		c-9.3-1.3-18.1-5-25.6-10.6L411.3,88z M352,80c0-27.8,20.5-51.4,48-55.4v52.1l-36.8,36.8C355.9,103.9,352,92.1,352,80z M224,56h16
		v152h-16V56z M200,144h8v64h-8V144z M168,24h16v184h-16V24z M144,144h8v64h-8V144z M112,80h16v128h-16V80z M336,480v8H176v-8H336z
		 M211.1,464l10.7-32h68.5l10.7,32H211.1z M488,400c0,8.8-7.2,16-16,16H40c-8.8,0-16-7.2-16-16v-16h464V400z M488,368H24V160
		c0-8.8,7.2-16,16-16h56v64h-8v-48c0-4.4-3.6-8-8-8H48c-4.4,0-8,3.6-8,8v56c0,4.4,3.6,8,8,8h256c4.4,0,8-3.6,8-8v-56
		c0-4.4-3.6-8-8-8h-32c-4.4,0-8,3.6-8,8v48h-8v-64h119.1c20.7,10.7,45.2,10.7,65.8,0H472c8.8,0,16,7.2,16,16V368z M72,168v40H56v-40
		H72z M280,208v-40h16v40H280z"/>
	<path class="st0" d="M96,392H48c-4.4,0-8,3.6-8,8s3.6,8,8,8h48c4.4,0,8-3.6,8-8S100.4,392,96,392z"/>
	<path class="st0" d="M128,392h-8c-4.4,0-8,3.6-8,8s3.6,8,8,8h8c4.4,0,8-3.6,8-8S132.4,392,128,392z"/>
	<path class="st0" d="M344,208c2.1,0,4.2-0.8,5.7-2.3l29.7-29.7H448c4.4,0,8-3.6,8-8s-3.6-8-8-8h-72c-2.1,0-4.2,0.8-5.7,2.3l-32,32
		c-3.1,3.1-3.1,8.2,0,11.3C339.8,207.2,341.9,208,344,208z"/>
	<path class="st0" d="M448,296c-8.6,0-16.5,4.6-20.8,12l-83.8-48.9c-2.7-13-15.4-21.3-28.4-18.6c-9.6,2-17,9.6-18.7,19.2l-84.3,63.2
		c-7.2-11.1-22.1-14.3-33.2-7.1c-3.5,2.3-6.4,5.5-8.3,9.2l-83.3-34.7c-3.1-12.9-16.1-20.8-28.9-17.7s-20.8,16.1-17.7,28.9
		s16.1,20.8,28.9,17.7c6.8-1.6,12.6-6.2,15.8-12.4l83.3,34.7c3.1,12.9,16.1,20.8,28.9,17.7c9.2-2.2,16.3-9.7,18-19l84.3-63.2
		c7.2,11.1,22.1,14.3,33.2,7.1c3.2-2.1,5.8-4.8,7.7-8.1l83.8,48.9c2.7,13,15.4,21.3,28.4,18.6s21.3-15.4,18.6-28.4
		C469.2,304,459.4,296,448,296z M72,296c0,4.4-3.6,8-8,8s-8-3.6-8-8s3.6-8,8-8C68.4,288,72,291.6,72,296L72,296z M192,344
		c-4.4,0-8-3.6-8-8v0c0-4.4,3.6-8,8-8c4.4,0,8,3.6,8,8C200,340.4,196.4,344,192,344z M320,272c-4.4,0-8-3.6-8-8s3.6-8,8-8s8,3.6,8,8
		C328,268.4,324.4,272,320,272z M448,328c-4.4,0-8-3.6-8-8s3.6-8,8-8s8,3.6,8,8C456,324.4,452.4,328,448,328z"/>
	<path class="st0" d="M384,344h-56c-4.4,0-8,3.6-8,8s3.6,8,8,8h56c4.4,0,8-3.6,8-8S388.4,344,384,344z"/>
	<path class="st0" d="M384,320h-24c-4.4,0-8,3.6-8,8s3.6,8,8,8h24c4.4,0,8-3.6,8-8S388.4,320,384,320z"/>
	<path class="st0" d="M48,248h88c4.4,0,8-3.6,8-8s-3.6-8-8-8H48c-4.4,0-8,3.6-8,8S43.6,248,48,248z"/>
	<path class="st0" d="M160,248h8c4.4,0,8-3.6,8-8s-3.6-8-8-8h-8c-4.4,0-8,3.6-8,8S155.6,248,160,248z"/>
</g>
</svg>
