<svg id="Capa_1" enable-background="new 0 0 512 512" height="512" viewBox="0 0 512 512" width="512" xmlns="http://www.w3.org/2000/svg"><g><g><circle cx="401.463" cy="42.855" r="8.081"/><circle cx="369.138" cy="42.855" r="8.081"/><circle cx="336.813" cy="42.855" r="8.081"/><path d="m504.5 236.339c-4.142 0-7.5 3.357-7.5 7.5v236.42c0 7.003-5.697 12.7-12.7 12.7h-202.04c-7.002 0-12.7-5.697-12.7-12.7v-111.139c0-4.143-3.358-7.5-7.5-7.5s-7.5 3.357-7.5 7.5v12.72h-226.86c-7.003 0-12.7-5.697-12.7-12.7v-213.83c0-4.143-3.358-7.5-7.5-7.5s-7.5 3.357-7.5 7.5v213.83c0 15.273 12.426 27.7 27.7 27.7h226.86v83.42c0 15.273 12.426 27.7 27.7 27.7h202.04c15.274 0 27.7-12.427 27.7-27.7v-236.42c0-4.143-3.358-7.501-7.5-7.501z"/><path d="m512 126.699c0-15.275-12.428-27.703-27.703-27.703h-34.927v-67.252c0-15.275-12.428-27.703-27.704-27.703h-393.963c-15.275 0-27.703 12.427-27.703 27.703v88.565c0 4.143 3.358 7.5 7.5 7.5s7.5-3.357 7.5-7.5v-38.639h419.37v17.325h-152.106c-15.275 0-27.703 12.428-27.703 27.703l-.001 207.422c0 4.143 3.358 7.5 7.5 7.5s7.5-3.357 7.5-7.5v-157.49h227.44v32.21c0 4.143 3.358 7.5 7.5 7.5s7.5-3.357 7.5-7.5zm-484.297-107.658h393.963c7.005 0 12.704 5.698 12.704 12.703v34.926h-419.37v-34.926c0-7.005 5.699-12.703 12.703-12.703zm241.858 107.658c0-7.005 5.699-12.703 12.703-12.703h202.033c7.004 0 12.703 5.698 12.703 12.703v34.927h-227.439z"/><circle cx="464.094" cy="137.811" r="8.081"/><circle cx="431.768" cy="137.811" r="8.081"/><circle cx="399.443" cy="137.811" r="8.081"/><path d="m39.825 235.215h189.911c4.142 0 7.5-3.357 7.5-7.5v-121.22c0-4.143-3.358-7.5-7.5-7.5h-189.911c-4.142 0-7.5 3.357-7.5 7.5v121.22c0 4.143 3.358 7.5 7.5 7.5zm182.411-21.185-73.515-46.925 73.515-46.925zm-18.19 6.185h-138.531l69.265-44.212zm-69.265-62.007-69.265-44.212h138.531zm-13.94 8.897-73.516 46.925v-93.85z"/><path d="m32.325 292.366c0 4.143 3.358 7.5 7.5 7.5h189.911c4.142 0 7.5-3.357 7.5-7.5v-32.325c0-4.143-3.358-7.5-7.5-7.5h-189.911c-4.142 0-7.5 3.357-7.5 7.5zm15-24.825h174.911v17.325h-174.911z"/><path d="m39.825 364.516h90.915c4.142 0 7.5-3.357 7.5-7.5s-3.358-7.5-7.5-7.5h-90.915c-4.142 0-7.5 3.357-7.5 7.5s3.358 7.5 7.5 7.5z"/><path d="m39.825 332.191h131.321c4.142 0 7.5-3.357 7.5-7.5s-3.358-7.5-7.5-7.5h-131.321c-4.142 0-7.5 3.357-7.5 7.5s3.358 7.5 7.5 7.5z"/><path d="m294.386 330.17h177.789c4.142 0 7.5-3.357 7.5-7.5v-121.22c0-4.143-3.358-7.5-7.5-7.5h-177.789c-4.142 0-7.5 3.357-7.5 7.5v121.22c0 4.143 3.358 7.5 7.5 7.5zm170.289-21.69-68.081-46.419 68.081-46.419zm-16.813 6.69h-129.163l64.581-44.033zm-64.581-62.186-64.581-44.033h129.163zm-13.313 9.077-68.081 46.419v-92.838z"/><path d="m286.886 387.321c0 4.143 3.358 7.5 7.5 7.5h177.789c4.142 0 7.5-3.357 7.5-7.5v-32.325c0-4.143-3.358-7.5-7.5-7.5h-177.789c-4.142 0-7.5 3.357-7.5 7.5zm15-24.825h162.789v17.325h-162.789z"/><path d="m294.386 459.471h70.711c4.142 0 7.5-3.357 7.5-7.5s-3.358-7.5-7.5-7.5h-70.711c-4.142 0-7.5 3.357-7.5 7.5s3.358 7.5 7.5 7.5z"/><path d="m294.386 427.146h111.118c4.142 0 7.5-3.357 7.5-7.5s-3.358-7.5-7.5-7.5h-111.118c-4.142 0-7.5 3.357-7.5 7.5s3.358 7.5 7.5 7.5z"/></g></g></svg>