<svg id="Capa_1" enable-background="new 0 0 512 512" height="512" viewBox="0 0 512 512" width="512" xmlns="http://www.w3.org/2000/svg"><g><g><path d="m348.539 74.863h-.057c-5.522 0-9.972 4.477-9.972 10s4.506 10 10.028 10 10-4.477 10-10-4.477-10-9.999-10z"/><path d="m396.898 74.863h-.028c-5.522 0-9.985 4.477-9.985 10s4.491 10 10.014 10 10-4.477 10-10-4.479-10-10.001-10z"/><path d="m300.18 74.863h-.057c-5.522 0-9.972 4.477-9.972 10s4.506 10 10.028 10 10-4.477 10-10-4.476-10-9.999-10z"/><path d="m198.672 74.863h-134.644c-5.522 0-10 4.477-10 10s4.478 10 10 10h134.644c5.522 0 10-4.477 10-10s-4.478-10-10-10z"/><path d="m511.899 443.343c-.733-10.232-5.386-19.544-13.099-26.216l-37.875-32.796v-326.879c0-16.424-13.362-29.786-29.786-29.786h-401.353c-16.424 0-29.786 13.362-29.786 29.786v331.858c0 16.424 13.362 29.786 29.786 29.786h354.301l64.576 55.929c7 6.055 15.786 9.309 24.996 9.309.934 0 1.871-.034 2.812-.101 10.231-.731 19.54-5.381 26.2-13.081 6.683-7.704 9.961-17.58 9.228-27.809zm-491.899-385.891c0-5.396 4.39-9.786 9.786-9.786h401.354c5.396 0 9.786 4.39 9.786 9.786v64.581h-420.926zm9.786 341.644c-5.396 0-9.786-4.39-9.786-9.786v-247.278h420.926v224.981l-72.72-62.969c-.009-1.267-.044-2.537-.136-3.812-.193-2.681-.576-5.318-1.12-7.903h35.986c5.522 0 10-4.477 10-10v-104.544c0-5.523-4.478-10-10-10h-127.615c-5.522 0-10 4.477-10 10s4.478 10 10 10h117.615v84.544h-34.364c-2.891-4.35-6.378-8.342-10.437-11.852-.088-.076-.177-.15-.267-.223-14.581-11.745-25.802-11.753-35.702-11.76-11.674-.008-23.745-.017-49.369-21.26-4.189-3.474-10.386-2.958-13.946 1.156-10.344 11.958-13.999 27.618-13.074 43.939h-167.787v-84.544h117.53c5.522 0 10-4.477 10-10s-4.478-10-10-10h-127.53c-5.522 0-10 4.477-10 10v104.544c0 5.523 4.478 10 10 10h181.042c5.864 22.308 18.659 43.55 33.06 56.011 10.646 9.218 23.974 14.169 37.921 14.169 2.708.005 5.402-.185 8.082-.569l42.9 37.156zm309.119-69.76c-6.654 7.696-15.91 12.338-26.061 13.071-10.145.73-19.973-2.531-27.662-9.188-19.819-17.152-36.864-58.707-26.238-83.606 25.644 18.861 40.794 18.873 53.209 18.882 8.733.006 14.021.01 23.031 7.224 7.619 6.646 12.213 15.854 12.937 25.947.729 10.148-2.54 19.971-9.216 27.67zm.946 24.989c5.262-3.144 10.05-7.129 14.173-11.897 4.138-4.772 7.402-10.09 9.763-15.755l78.782 68.219-23.951 27.653zm147.703 103.732c-3.17 3.665-7.613 5.877-12.51 6.227-4.904.347-9.623-1.207-13.291-4.381l-28.017-24.266 23.952-27.655 28.024 24.267c3.672 3.176 5.888 7.623 6.238 12.522.351 4.896-1.207 9.61-4.396 13.286z"/><path d="m128.119 332.836h86.938c5.522 0 10-4.477 10-10s-4.478-10-10-10h-86.938c-5.522 0-10 4.477-10 10s4.477 10 10 10z"/><path d="m57.99 332.836h29.622c5.522 0 10-4.477 10-10s-4.478-10-10-10h-29.622c-5.522 0-10 4.477-10 10s4.478 10 10 10z"/><path d="m139.995 353.344h-82.005c-5.522 0-10 4.477-10 10s4.478 10 10 10h82.006c5.522 0 10-4.477 10-10s-4.478-10-10.001-10z"/><path d="m235.324 353.344h-44.674c-5.522 0-10 4.477-10 10s4.478 10 10 10h44.674c5.522 0 10-4.477 10-10s-4.477-10-10-10z"/><path d="m230.42 187.785h.057c5.522 0 9.972-4.477 9.972-10s-4.506-10-10.028-10-10 4.477-10 10c-.001 5.523 4.476 10 9.999 10z"/></g></g></svg>